<svg xmlns="http://www.w3.org/2000/svg" viewBox="0 0 64 64" role="img">
<defs><linearGradient id="bg" x1="0" y1="0" x2="1" y2="1"><stop stop-color="#073B4C"/><stop offset="1" stop-color="#0B5C6B"/></linearGradient><linearGradient id="aqua" x1="0" y1="0" x2="1" y2="1"><stop stop-color="#8BE3D4"/><stop offset="1" stop-color="#42B8A9"/></linearGradient><linearGradient id="orange" x1="0" y1="0" x2="1" y2="1"><stop stop-color="#FFB347"/><stop offset="1" stop-color="#FF7A00"/></linearGradient></defs>
<rect x="5" y="5" width="54" height="54" rx="10" fill="url(#bg)"/><g stroke="url(#aqua)" stroke-width="3" stroke-linecap="round" fill="none"><circle cx="29" cy="30" r="18" stroke-dasharray="20 7"/><ellipse cx="29" cy="45" rx="8" ry="4"/></g><path d="M29 14c-7 0-12 5-12 12 0 9 12 20 12 20s12-11 12-20c0-7-5-12-12-12z" fill="url(#orange)"/><circle cx="29" cy="26" r="4" fill="#073B4C"/><circle cx="47" cy="45" r="10" fill="url(#orange)"/><path d="M43 41l8 8M51 41l-8 8" stroke="#fff" stroke-width="3.5" stroke-linecap="round"/></svg>
