<svg xmlns="http://www.w3.org/2000/svg" viewBox="0 0 64 64" role="img">
<defs><linearGradient id="bg" x1="0" y1="0" x2="1" y2="1"><stop stop-color="#073B4C"/><stop offset="1" stop-color="#0B5C6B"/></linearGradient><linearGradient id="aqua" x1="0" y1="0" x2="1" y2="1"><stop stop-color="#8BE3D4"/><stop offset="1" stop-color="#42B8A9"/></linearGradient><linearGradient id="orange" x1="0" y1="0" x2="1" y2="1"><stop stop-color="#FFB347"/><stop offset="1" stop-color="#FF7A00"/></linearGradient></defs>
<rect x="6" y="8" width="52" height="48" rx="8" fill="url(#bg)"/><rect x="13" y="14" width="38" height="38" rx="5" fill="none" stroke="url(#aqua)" stroke-width="3"/><path d="M24 11h16v7H24z" fill="url(#aqua)"/><g fill="url(#aqua)"><circle cx="20" cy="25" r="2.5"/><circle cx="20" cy="34" r="2.5"/><circle cx="20" cy="43" r="2.5"/><rect x="26" y="23" width="15" height="4" rx="2"/><rect x="26" y="32" width="15" height="4" rx="2"/><rect x="26" y="41" width="15" height="4" rx="2"/></g><path d="M45 22c-4 0-7 3-7 7 0 5 7 11 7 11s7-6 7-11c0-4-3-7-7-7z" fill="url(#orange)"/><circle cx="45" cy="29" r="2.5" fill="#073B4C"/><path d="M43 49h11m-4-4 4 4-4 4" stroke="url(#orange)" stroke-width="3" stroke-linecap="round" stroke-linejoin="round"/></svg>
